<svg width="80" height="80" viewBox="0 0 80 80" fill="none" xmlns="http://www.w3.org/2000/svg">
<g clip-path="url(#clip0_1_64)">
<rect width="80" height="80" rx="40" fill="#FED4AD"/>
<g clip-path="url(#clip1_1_64)">
<path d="M63.0444 87.6763C63.0444 87.6763 59.9199 86.6509 61.258 82.3606C62.596 78.0703 64.3824 84.9494 63.0444 87.6763Z" fill="#C5AC9B"/>
<path d="M49.9313 29.7657C49.9313 31.22 49.0851 31.6127 47.7615 31.6127C47.1222 31.5535 46.528 31.2563 46.0953 30.7794C45.6627 30.3025 45.4229 29.6803 45.4229 29.0349C45.4229 28.3894 45.6627 27.7672 46.0953 27.2903C46.528 26.8134 47.1222 26.5162 47.7615 26.457C49.0851 26.457 49.9313 28.3404 49.9313 29.7657Z" fill="#2C1702"/>
<path d="M47.6168 46.4023C45.6536 47.127 43.5746 47.4819 41.4836 47.4495C40.3003 47.4833 39.1174 47.371 37.9613 47.115H37.5563C36.7463 50.2927 35.3142 54.9103 33.4482 56.8227C33.4482 56.8227 45.8665 59.9641 51.3054 55.8847C51.3271 55.8701 48.1592 50.8163 47.6168 46.4023Z" fill="#E39866"/>
<path d="M30.6857 76.3555C30.6857 76.3555 25.905 90.8989 27.0695 104.483C27.0695 104.483 36.1825 112.481 60.1728 105.079C60.1728 105.079 59.4061 82.1801 55.4644 77.1408C55.4427 77.1408 39.09 79.9041 30.6857 76.3555Z" fill="#FCF8F3"/>
<g style="mix-blend-mode:multiply" opacity="0.75">
<path d="M59.2685 92.9714C58.9575 90.0627 58.5452 87.2049 57.9956 84.3689C57.5037 81.9838 56.9758 79.1042 55.4425 77.1408C55.4425 77.1408 39.0897 79.9041 30.6855 76.3555C28.6329 82.8449 27.4009 89.5684 27.0186 96.3673V96.3673C26.8271 99.0689 26.8271 101.781 27.0186 104.483C27.0186 104.483 29.3258 106.504 34.6489 107.573C33.7738 105.072 34.7936 101.981 36.1967 99.8795C38.2351 100.359 40.3035 100.7 42.3878 100.898C44.3908 100.98 46.3939 100.735 48.3184 100.17C52.4771 98.9924 55.7752 96.2873 59.348 93.9749C59.3119 93.6404 59.2757 93.2913 59.2396 92.9496L59.2685 92.9714Z" fill="#E8E3D9"/>
</g>
<path d="M33.9691 55.8711C33.9691 55.8711 44.384 58.7143 51.3272 55.8711C51.3272 55.8711 72.8512 79.9914 56.5635 90.4627C40.2759 100.934 25.8036 90.4627 25.1527 86.3397C24.5017 82.2166 29.8683 63.1574 33.9691 55.8711Z" fill="#FCF8F3"/>
<path d="M45.9609 58.7933C45.9609 58.7933 50.3005 58.6915 51.2262 58.7933C52.152 58.8951 57.533 86.295 55.4283 88.6074C53.3237 90.9198 49.0131 92.3378 47.7546 92.2433C46.4961 92.1487 53.6491 88.9492 54.0614 86.9422C54.4736 84.9352 51.1684 63.9126 50.4451 62.2183C49.5627 60.2113 49.4398 59.6441 45.9609 58.7933Z" fill="#E8E3D9"/>
<path d="M40.5361 62.5454C40.5227 62.7669 40.4441 62.9794 40.3103 63.1559C40.1766 63.3324 39.9937 63.465 39.7849 63.5368C39.5761 63.6087 39.3507 63.6165 39.1375 63.5593C38.9242 63.5022 38.7326 63.3826 38.5871 63.2158C38.4415 63.049 38.3486 62.8425 38.3199 62.6224C38.2913 62.4024 38.3284 62.1788 38.4264 61.98C38.5244 61.7811 38.679 61.6161 38.8704 61.5057C39.0619 61.3954 39.2817 61.3447 39.5019 61.3601C39.7949 61.3807 40.0679 61.5168 40.2616 61.7388C40.4553 61.9607 40.554 62.2507 40.5361 62.5454V62.5454Z" fill="#B4B4B7"/>
<path d="M48.7169 62.241C48.7169 62.4628 48.6514 62.6796 48.5287 62.8639C48.4059 63.0482 48.2316 63.1917 48.0276 63.2762C47.8237 63.3608 47.5994 63.3825 47.3831 63.3387C47.1668 63.2949 46.9684 63.1875 46.8129 63.0302C46.6574 62.8729 46.5519 62.6726 46.5098 62.4549C46.4676 62.2372 46.4907 62.0118 46.5761 61.8074C46.6615 61.6029 46.8054 61.4285 46.9895 61.3063C47.1737 61.1841 47.3897 61.1197 47.6103 61.1211C47.9044 61.123 48.1859 61.2419 48.3932 61.4517C48.6005 61.6615 48.7169 61.9452 48.7169 62.241Z" fill="#B4B4B7"/>
<path d="M40.8624 74.203C40.8462 74.4222 40.7657 74.6317 40.6312 74.8049C40.4967 74.9782 40.3142 75.1075 40.1066 75.1766C39.8991 75.2457 39.6758 75.2514 39.4651 75.193C39.2543 75.1347 39.0655 75.0148 38.9224 74.8487C38.7793 74.6825 38.6883 74.4774 38.661 74.2593C38.6337 74.0413 38.6713 73.8199 38.7689 73.6233C38.8666 73.4267 39.02 73.2635 39.2098 73.1544C39.3996 73.0454 39.6173 72.9953 39.8354 73.0105C40.1285 73.0328 40.4009 73.1707 40.5932 73.3941C40.7856 73.6175 40.8824 73.9082 40.8624 74.203Z" fill="#B4B4B7"/>
<path d="M49.8233 73.8464C49.8233 74.0682 49.7578 74.285 49.6351 74.4693C49.5124 74.6536 49.338 74.7972 49.1341 74.8817C48.9301 74.9663 48.7058 74.988 48.4895 74.9442C48.2733 74.9004 48.0748 74.793 47.9194 74.6357C47.7639 74.4783 47.6584 74.2781 47.6162 74.0604C47.5741 73.8427 47.5972 73.6173 47.6826 73.4128C47.768 73.2083 47.9119 73.0339 48.096 72.9118C48.2801 72.7896 48.4962 72.7251 48.7167 72.7266C49.0109 72.7285 49.2923 72.8473 49.4997 73.0571C49.707 73.2669 49.8233 73.5507 49.8233 73.8464Z" fill="#B4B4B7"/>
<path d="M52.8321 44.6279C51.3422 41.7992 50.2501 40.0467 50.1489 37.4798C49.9897 33.4294 49.5269 26.4122 42.9163 25.2996C36.8482 24.2743 31.4166 29.2045 31.3587 35.3782C31.3587 36.8326 31.3081 39.0141 31.2141 40.2285C30.0207 38.3451 27.4025 38.047 26.6576 40.483C25.8403 43.1663 28.8273 45.5369 30.9971 45.4423C31.3587 50.358 33.8467 55.4482 45.4405 54.2484C54.2352 53.3612 54.539 47.8711 52.8321 44.6279Z" fill="#F6AD80"/>
<path d="M28.9062 39.5312C29.5516 39.862 30.0795 40.3852 30.4178 41.0292C31.0832 42.3745 30.5697 43.618 29.8392 43.6325C28.711 43.6325 28.3276 42.7235 29.116 41.7709C29.7886 40.9783 28.9062 39.5312 28.9062 39.5312Z" fill="#DB8E5D"/>
<path d="M35.4883 35.8158C35.4883 35.8158 39.1479 33.7943 41.4841 33.707L41.5781 31.1328L40.4787 31.2855L40.1388 32.6162L39.8712 31.7291L38.8297 31.9981L39.3722 33.0453L38.3741 32.3181C38.3741 32.3181 35.6329 33.4016 35.4883 35.8158Z" fill="#745040"/>
<path d="M50.3006 34.1925C48.7463 33.7237 47.1275 33.5076 45.5054 33.5526L45.1221 31.3711H46.0912L46.5469 32.4473L46.6698 31.6547L47.6028 31.7638L47.2701 32.7236L48.0512 31.9965C48.6134 32.0648 49.1378 32.3166 49.5441 32.7133C49.9504 33.1099 50.2161 33.6295 50.3006 34.1925V34.1925Z" fill="#745040"/>
<path d="M34.129 25.3077C34.129 25.3077 37.0726 30.856 33.4708 34.9064C33.4708 34.9064 33.102 41.0946 33.8903 42.6799H31.207C31.207 42.6799 31.113 39.2403 28.7046 38.7822C27.6342 38.5786 26.6578 40.5565 26.6578 40.5565C26.6578 40.5565 25.1028 23.1916 34.129 25.3077Z" fill="#745040"/>
<path d="M31.655 25.8381C31.655 25.8381 34.3889 30.492 43.1258 29.1177C51.8627 27.7433 49.1071 31.3865 49.1071 31.3865C49.1071 31.3865 55.9563 26.2963 46.4889 23.3003C37.0215 20.3043 30.1868 23.5112 31.655 25.8381Z" fill="#745040"/>
<path d="M39.3651 46.2356C40.9917 45.1995 42.7712 44.4288 44.6376 43.9523C45.9178 43.7123 47.3643 45.1958 47.5812 44.6213C47.5812 44.6213 51.2915 50.0169 44.7967 50.4387C39.0613 50.8095 39.3651 46.2356 39.3651 46.2356Z" fill="#A53625"/>
<path d="M44.796 48.1112C43.2688 48.0814 41.7557 48.41 40.377 49.0711C41.1436 49.9146 42.4672 50.5909 44.796 50.4382C45.9179 50.4576 47.0135 50.0964 47.906 49.4129C47.059 48.6168 45.9547 48.1546 44.796 48.1112V48.1112Z" fill="#FF7970"/>
<path d="M47.5811 44.6213C47.3641 45.1958 45.9176 43.7123 44.6375 43.9523C43.5082 44.2042 42.4147 44.5975 41.3828 45.123C41.4262 45.7339 41.4407 46.352 41.4407 46.9701C43.8274 47.4791 47.5522 47.3264 48.449 46.461C48.2477 45.8096 47.9555 45.1902 47.5811 44.6213V44.6213Z" fill="white"/>
<path d="M43.408 43.8787C42.9591 44.094 42.4721 44.2171 41.9753 44.2408C41.4786 44.2646 40.9821 44.1884 40.515 44.0168C39.7917 43.7769 38.7719 43.3988 38.6128 42.8097C38.4537 42.2207 38.6851 42.2135 39.0974 42.2498C39.0974 42.2498 37.4122 41.0354 37.3037 43.4569C37.3101 43.7884 37.384 44.1151 37.5207 44.4168C37.7449 45.144 38.2439 46.0602 40.0448 46.5401C43.5237 47.4637 44.9413 43.8787 44.9413 43.8787C44.9413 43.8787 45.5994 42.7298 43.408 43.8787Z" fill="#745040"/>
<path d="M45.6857 43.5517C46.0934 43.7503 46.5369 43.8636 46.9894 43.8848C47.4419 43.9061 47.894 43.8348 48.3183 43.6753C48.962 43.4572 49.9022 43.1154 50.0469 42.5845C50.1915 42.0537 49.9818 42.0392 49.6057 42.0683C49.6057 42.0683 51.139 40.963 51.2403 43.1663C51.2348 43.4683 51.1658 43.7657 51.0378 44.0389C50.8352 44.6933 50.4013 45.5369 48.745 45.9732C45.5772 46.8167 44.2898 43.5517 44.2898 43.5517C44.2898 43.5517 43.6967 42.5118 45.6857 43.5517Z" fill="#745040"/>
<path d="M45.7584 41.6314C45.0351 39.8862 43.3861 36.7012 43.3861 36.7012C43.3861 36.7012 43.3861 42.075 42.6629 42.4458V42.4895C41.7009 42.7294 40.9415 44.6274 44.5723 44.3147C48.203 44.002 46.4672 43.3621 45.7584 41.6314Z" fill="#EF9A7C"/>
<path d="M39.0246 40.0252C39.6957 40.0252 40.2397 39.2308 40.2397 38.2509C40.2397 37.2709 39.6957 36.4766 39.0246 36.4766C38.3536 36.4766 37.8096 37.2709 37.8096 38.2509C37.8096 39.2308 38.3536 40.0252 39.0246 40.0252Z" fill="#745040"/>
<path d="M38.4102 37.8219C38.6059 37.8219 38.7646 37.6624 38.7646 37.4656C38.7646 37.2688 38.6059 37.1093 38.4102 37.1093C38.2144 37.1093 38.0558 37.2688 38.0558 37.4656C38.0558 37.6624 38.2144 37.8219 38.4102 37.8219Z" fill="white"/>
<path d="M38.5331 36.6294C38.5331 36.6294 40.0592 37.1893 40.8548 36.3894C40.0776 36.1829 39.2522 36.2682 38.5331 36.6294V36.6294Z" fill="#745040"/>
<path d="M47.7112 37.4656C47.7112 38.4473 47.1688 39.2399 46.4961 39.2399C45.8235 39.2399 45.2811 38.4473 45.2811 37.4656C45.2811 36.4839 45.8235 35.6913 46.4961 35.6913C47.1688 35.6913 47.7112 36.4839 47.7112 37.4656Z" fill="#745040"/>
<path d="M45.7509 37.2615C45.9466 37.2615 46.1053 37.1019 46.1053 36.9051C46.1053 36.7084 45.9466 36.5488 45.7509 36.5488C45.5552 36.5488 45.3965 36.7084 45.3965 36.9051C45.3965 37.1019 45.5552 37.2615 45.7509 37.2615Z" fill="white"/>
<path d="M46.1133 35.8155C46.1133 35.8155 47.4658 36.3172 48.1746 35.6046C47.4846 35.4234 46.7528 35.4983 46.1133 35.8155V35.8155Z" fill="#745040"/>
<path d="M22.4551 19.4024L26.7946 33.4804C26.7946 33.4804 32.9712 25.7506 47.5881 23.6854L40.5364 10.829C40.5364 10.829 29.3983 6.8659 22.4551 19.4024Z" fill="#FCF8F3"/>
<path d="M44.3767 17.2791C45.0284 16.7053 45.5531 16.0005 45.9169 15.2101C46.2806 14.4198 46.4754 13.5614 46.4886 12.6906C46.4886 8.99657 43.0748 6.00061 38.8655 6.00061C36.8041 5.97523 34.8104 6.7396 33.2892 8.1385C31.7351 6.89845 29.8054 6.23119 27.8214 6.24785C23.4023 6.24785 19.7861 9.40378 19.7861 13.2723C19.7759 14.5696 20.1621 15.8388 20.8927 16.9082C20.0903 17.4108 19.4245 18.1057 18.9549 18.9306C18.4854 19.7555 18.2267 20.6847 18.2021 21.6348C18.2021 24.9289 21.2543 27.6049 25.0152 27.6049H25.3768C25.3841 27.2632 30.9097 14.9012 44.3767 17.2791Z" fill="#FCF8F3"/>
<path d="M38.6561 14.5015C37.2775 14.2308 35.93 13.819 34.6348 13.2726C34.2053 13.0488 33.7942 12.791 33.4053 12.5018C32.9715 14.2756 31.9258 15.8371 30.4544 16.9084C28.2485 18.4937 26.0281 18.4646 23.7715 17.8174C24.4222 18.8633 24.8433 20.0369 25.0067 21.2595C25.1701 22.4822 25.072 23.7258 24.719 24.9073C24.6563 25.0964 24.584 25.2855 24.502 25.4745C24.9215 25.9108 25.3482 26.3471 25.746 26.7835C27.0985 24.1147 32.2987 16.1813 42.6412 17.0539C43.015 16.2424 43.2287 15.3657 43.2704 14.4724C41.769 14.9402 40.1633 14.9503 38.6561 14.5015V14.5015Z" fill="#F5E9D6"/>
<path d="M51.3271 55.8711C51.3271 55.8711 67 64.5972 67 74.9594C67 85.3216 63.0438 87.6704 63.0438 87.6704C63.1088 86.6548 62.8113 85.6492 62.2049 84.8344C62.2049 84.8344 58.3789 74.9667 58.3789 74.1231C58.3789 73.2796 57.4314 72.727 57.4314 72.727C57.4314 72.727 53.1859 58.4017 51.3271 55.8711Z" fill="#FCF8F3"/>
<g style="mix-blend-mode:multiply" opacity="0.75">
<path d="M59.3125 69.1706C57.9199 66.6776 56.1674 64.406 54.1123 62.4297C55.7975 67.2218 57.432 72.7265 57.432 72.7265C57.432 72.7265 58.3795 73.2864 58.3795 74.1226C58.3795 74.6753 60.0791 79.0965 61.2725 82.0852C61.1062 77.7221 61.4678 73.3736 59.3125 69.1706Z" fill="#E8E3D9"/>
</g>
<path d="M59.9125 84.6737H38.3957C37.6284 84.6737 36.8926 84.3673 36.35 83.8218C35.8075 83.2763 35.5027 82.5365 35.5027 81.765V77.5838H62.7983V81.7723C62.7964 82.5412 62.4917 83.2781 61.9509 83.8218C61.4102 84.3655 60.6773 84.6718 59.9125 84.6737Z" fill="#E78E39"/>
<g style="mix-blend-mode:multiply" opacity="0.65">
<path d="M35.5099 79.0599C38.1209 80.0416 43.2487 79.9398 49.1505 79.9398C55.0522 79.9398 60.1873 80.0416 62.7983 79.0599V77.6056H35.5099V79.0599Z" fill="#D98F52"/>
</g>
<path d="M64.6277 75.9324C64.6277 79.081 57.6989 78.8411 49.1501 78.8411C40.6012 78.8411 33.6797 79.0447 33.6797 75.9324C33.6797 72.8201 40.6085 70.2168 49.1501 70.2168C57.6917 70.2168 64.6277 72.7764 64.6277 75.9324Z" fill="#E78E39"/>
<path d="M64.0283 75.0831C64.0283 77.65 57.3671 77.4827 49.151 77.4827C40.9348 77.4827 34.252 77.6136 34.252 75.0831C34.252 72.5525 40.9131 70.4219 49.122 70.4219C57.331 70.4219 64.0283 72.4725 64.0283 75.0831Z" fill="#EA2829"/>
<g style="mix-blend-mode:multiply" opacity="0.65">
<path d="M61.0557 75.4462C58.5026 76.057 55.5445 76.0716 52.9191 76.1734C51.3497 76.2097 49.7802 76.1734 48.2035 76.2243C46.6861 76.3588 45.1612 76.3879 43.6398 76.3115C40.8408 75.9916 37.7308 76.2752 35.6044 74.13C35.4282 73.9483 35.2685 73.7512 35.1271 73.541C34.8792 73.7193 34.6727 73.9494 34.5216 74.2155C34.3706 74.4816 34.2786 74.7774 34.252 75.0826C34.252 77.6495 40.9131 77.4823 49.122 77.4823C57.331 77.4823 63.9994 77.6495 63.9994 75.0826C63.9872 74.7171 63.8635 74.3642 63.645 74.0719C62.8948 74.7186 62.01 75.1882 61.0557 75.4462V75.4462Z" fill="#B8B5A1"/>
</g>
<path d="M54.9722 77.0303C54.8565 76.977 54.7407 76.9188 54.625 76.8558C55.4269 76.2836 56.1706 75.6332 56.8454 74.9142C60.8956 78.6446 64.078 77.5975 61.9733 76.6449C60.5082 75.8192 59.1726 74.7802 58.0099 73.5617C58.4583 72.9872 58.9139 72.3473 59.3696 71.6419C58.8922 71.4892 58.4004 71.3438 57.8797 71.2129C57.5831 71.5547 57.2215 71.9401 56.8237 72.3764C56.2234 71.7583 55.681 71.1693 55.2398 70.6748C54.6033 70.573 53.9452 70.493 53.2653 70.4203C53.9482 71.5566 54.7299 72.6297 55.6014 73.6271C54.8348 74.4052 53.9958 75.1978 53.193 75.8741C52.3085 75.1699 51.4612 74.4199 50.6544 73.6271C51.4872 72.6152 52.2348 71.5352 52.8892 70.3985C52.3902 70.3548 51.8839 70.3185 51.3632 70.2894C50.9364 70.7839 50.2566 71.5474 49.4538 72.3909C48.6293 71.5329 47.9422 70.7548 47.5154 70.2676C46.9947 70.2676 46.4812 70.3112 45.9822 70.3548C46.6463 71.5061 47.4034 72.6006 48.2459 73.6271C47.4415 74.4316 46.594 75.1914 45.7073 75.9032C44.9045 75.2269 44.0655 74.4488 43.2989 73.6562C44.1848 72.6359 44.9786 71.5384 45.6712 70.3767C45.013 70.4348 44.3765 70.5075 43.7545 70.5875C43.2916 71.1038 42.7203 71.7292 42.0766 72.3909L40.9121 71.1111C40.3986 71.2274 39.9068 71.3583 39.4656 71.4965C39.91 72.2155 40.3929 72.9098 40.9121 73.5762C39.7494 74.7947 38.4138 75.8337 36.9487 76.6594C34.8368 77.612 38.0264 78.6592 42.0766 74.9288C42.7521 75.6498 43.4985 76.3003 44.3042 76.8703L43.9498 77.0448C42.5033 77.692 43.5086 78.3756 45.5337 77.6193C48.1302 78.95 49.6057 78.1647 47.9928 77.4375C47.6568 77.2773 47.3329 77.0926 47.0236 76.8849C47.9005 76.3277 48.711 75.6714 49.4393 74.9288C50.1772 75.6683 50.9975 76.3197 51.8839 76.8703C51.5756 77.0795 51.2516 77.2643 50.9147 77.423C49.3019 78.1501 50.7846 78.9355 53.3738 77.6048C55.4134 78.361 56.397 77.6775 54.9722 77.0303Z" fill="#EFB37A"/>
<path d="M64.1222 74.4707C64.1222 74.5143 64.1222 74.5507 64.1222 74.5943C64.1222 77.6412 57.4177 77.4448 49.1436 77.4448C40.8696 77.4448 34.1723 77.6412 34.1723 74.5943C34.1723 74.5507 34.1723 74.5143 34.1723 74.4707C33.8542 74.8891 33.6769 75.3985 33.666 75.925C33.666 79.0737 40.5948 78.8337 49.1364 78.8337C57.678 78.8337 64.614 79.0374 64.614 75.925C64.6039 75.4007 64.4321 74.8925 64.1222 74.4707V74.4707Z" fill="#EFB37A"/>
<path d="M51.1976 68.4359C51.1007 68.3046 50.9918 68.1829 50.8721 68.0723C50.4526 67.6869 49.5196 67.0688 48.6445 67.4833C48.2937 67.6051 47.9866 67.8286 47.7618 68.1255C47.5371 68.4225 47.4048 68.7797 47.3816 69.1521C47.3584 69.5246 47.4453 69.8956 47.6315 70.2184C47.8176 70.5413 48.0946 70.8015 48.4275 70.9664C49.8957 71.919 52.3982 70.1447 51.1976 68.4359Z" fill="#BF0000"/>
<path d="M50.6114 68.378C50.6114 68.378 49.8231 67.4472 49.6133 67.8108C49.4036 68.1744 49.9243 69.1052 50.6331 69.1197C50.9441 69.1343 51.7325 68.9525 50.6114 68.378Z" fill="#9A0009"/>
<path d="M53.7796 65.1205C52.3331 67.5565 50.7347 68.0292 50.1055 68.2255C50.13 68.3433 50.1983 68.4472 50.2964 68.5161C50.3945 68.585 50.515 68.6137 50.6334 68.5964C50.6334 68.5964 52.5862 67.4256 53.1142 66.5821C53.4155 66.1431 53.6909 65.6866 53.9387 65.215C53.9749 65.1059 53.9242 64.9678 53.7796 65.1205Z" fill="#7D9700"/>
<path d="M49.3314 68.8368C49.2217 68.9415 49.077 69.0012 48.9258 69.0044C48.7746 69.0075 48.6276 68.9539 48.5137 68.8538C48.3997 68.7538 48.327 68.6147 48.3097 68.4636C48.2924 68.3125 48.3317 68.1603 48.4201 68.0369C48.5298 67.9322 48.6744 67.8724 48.8257 67.8693C48.9769 67.8661 49.1239 67.9198 49.2378 68.0198C49.3518 68.1198 49.4245 68.259 49.4418 68.4101C49.4591 68.5612 49.4198 68.7133 49.3314 68.8368Z" fill="#D98586"/>
<path d="M33.9696 55.8696C33.9696 55.8042 12.3515 62.4724 14.1018 77.4448C15.2952 87.6907 28.1257 87.9089 35.1919 87.4435C35.1919 87.4435 34.1648 85.6037 35.5101 81.757C35.5101 81.757 26.0427 75.9396 26.8745 74.5362C27.3555 73.5782 27.7735 72.5896 28.1257 71.5766C28.1257 71.5766 33.7164 59.4546 33.9696 55.8696Z" fill="#FCF8F3"/>
<g style="mix-blend-mode:multiply" opacity="0.75">
<path d="M28.1253 71.5921C28.1253 71.5921 28.9064 69.8978 29.8972 67.5781C27.8432 69.4106 25.5577 71.1776 24.5307 73.5119C23.3518 76.166 24.4294 77.2859 26.8379 78.2094C28.6243 78.8857 30.2661 79.7437 31.9874 80.5509C32.8175 80.8805 33.6888 81.0933 34.5767 81.1835C32.2116 79.6637 26.2086 75.6497 26.874 74.5517C27.3551 73.5938 27.7731 72.6051 28.1253 71.5921V71.5921Z" fill="#E8E3D9"/>
</g>
</g>
</g>
<defs>
<clipPath id="clip0_1_64">
<rect width="80" height="80" rx="40" fill="white"/>
</clipPath>
<clipPath id="clip1_1_64">
<rect width="53" height="133" fill="white" transform="translate(14 6)"/>
</clipPath>
</defs>
</svg>
